<svg xmlns="http://www.w3.org/2000/svg" viewBox="0 0 284.333 183"><path d="M-.465 16.32l173.18 173.18M-6.195 22.05l173.18 173.18M-11.925 27.78l173.18 173.18M-17.655 33.51l173.18 173.18M-23.385 39.24l173.18 173.18M-29.115 44.97l173.19 173.18M-34.845 50.7l173.19 173.18M-40.565 56.43l173.18 173.18M-46.295 62.16l173.18 173.18M-52.025 67.89l173.18 173.18M-57.755 73.62l173.18 173.18M-63.485 79.35l173.18 173.18M-69.215 85.08l173.18 173.18M-74.945 90.81l173.18 173.18m73.88-269.87l-172 172m166.27-177.73l-172 172m166.27-177.73l-172 172m166.27-177.73l-172 172M149.195-28.8l-172 172m166.27-177.73l-172 172m166.27-177.73l-172 172m166.27-177.73l-172 172m166.27-177.73l-172 172m166.27-177.72l-172 171.99m166.27-177.72l-172 172M109.085-68.9l-172 172m166.27-177.73l-172 172M97.625-80.36l-172 172" fill="none" stroke="#fff" stroke-miterlimit="10" stroke-width="2" opacity=".03"/></svg>